# Blender v3.0.0 OBJ File: 'untitled.blend'
# www.blender.org
mtllib Rumput.mtl
o Grass_Mesh.005
v 21.847012 0.098697 17.514544
v 22.360615 0.103358 17.841330
v 22.008951 -0.017336 17.273581
v 22.509460 -0.007758 17.565411
v 21.635622 0.040909 17.422937
v 22.040657 0.074893 17.579868
v 21.719528 -0.034712 17.216873
v 22.125332 -0.009317 17.387440
v 21.555138 0.087312 16.934347
v 21.622395 0.103328 17.359606
v 21.745825 0.011273 16.892542
v 21.815594 0.030720 17.298389
v 21.852669 0.143746 17.352587
v 22.227966 0.081021 17.608072
v 22.065729 0.012721 17.195330
v 22.340223 -0.001619 17.470005
v 22.401865 0.037588 16.059345
v 22.159992 0.078604 15.858154
v 21.811934 0.102324 16.403902
v 22.016403 0.019850 16.551544
v 22.353668 0.018675 15.867126
v 22.206026 0.080252 15.729864
v 21.915592 0.069971 15.993656
v 22.028614 0.018157 16.199553
v 22.078074 -0.010112 16.581120
v 21.949522 0.037091 16.417070
v 21.673500 0.048792 16.778330
v 21.774044 -0.006819 16.924706
v 22.252510 -0.023601 15.723857
v 22.165310 0.018783 15.596627
v 21.820589 0.086325 15.856912
v 21.906538 -0.016641 16.026932
v 23.517109 -0.020608 16.433569
v 23.776102 0.089628 16.354923
v 23.554117 0.105747 15.820285
v 23.353390 0.002929 15.895524
v 23.673346 0.037871 16.468363
v 23.855736 0.129155 16.465832
v 23.818016 0.113992 16.092169
v 23.616390 0.054801 16.114916
v 23.693840 -0.013529 16.089270
v 23.860456 0.045208 15.973074
v 23.639931 0.070753 15.669772
v 23.473316 0.012016 15.785968
v 23.376928 0.064797 15.930578
v 23.221922 -0.001130 16.073071
v 23.454620 -0.015675 16.386868
v 23.598526 0.078649 16.273129
v 23.356411 -0.016121 17.431759
v 23.623213 0.124773 17.613632
v 23.990795 0.081830 17.084864
v 23.660061 -0.003342 16.927538
v 23.418825 0.052728 17.535437
v 23.536798 0.112742 17.742966
v 23.913752 0.066878 17.538406
v 23.794384 -0.000823 17.336809
v 23.574303 -0.016826 17.053125
v 23.787592 0.041028 17.178699
v 23.973902 0.047556 16.831478
v 23.761770 -0.017874 16.691319
v 23.465845 0.007821 17.333054
v 23.692169 0.099927 17.397749
v 23.835958 0.048868 16.979284
v 23.594152 0.005695 16.919859
v 22.312624 0.028623 17.638031
v 22.206364 0.185565 17.937469
v 22.814152 0.092030 18.158724
v 22.824001 -0.002344 17.836601
v 22.143080 0.085851 17.797338
v 22.069244 0.197256 17.960283
v 22.416082 0.116481 18.157974
v 22.522350 0.035212 17.956963
v 23.004250 0.032978 17.704021
v 23.071671 0.096020 17.929806
v 23.467869 0.123646 17.790400
v 23.390755 0.055018 17.580179
v 22.822601 0.092672 17.861584
v 22.817875 -0.017571 17.673079
v 22.431971 0.007074 17.615248
v 22.405218 0.130157 17.814091
v 23.245495 0.020552 15.985404
v 23.279226 0.061568 15.684851
v 22.757250 0.085287 15.645698
v 22.757931 0.002816 15.943658
v 23.358978 -0.018524 15.855630
v 23.413139 0.042356 15.658216
v 23.057928 0.032074 15.541081
v 22.989573 -0.019740 15.734681
v 22.781145 -0.021853 15.776541
v 22.756100 0.025350 15.576971
v 22.387054 0.037051 15.643630
v 22.425995 -0.018560 15.846282
v 22.779037 0.067534 15.900256
v 22.823418 0.003543 16.069214
v 23.172047 0.021886 16.013704
v 23.126156 0.058120 15.824350
v 23.517109 0.038130 16.433569
v 23.776102 0.148366 16.354923
v 23.554117 0.164485 15.820285
v 23.353390 0.061668 15.895524
v 23.376928 0.120279 15.930578
v 23.221922 0.054352 16.073071
v 23.454620 0.039807 16.386868
v 23.598526 0.134131 16.273129
vt 0.000000 0.500000
vt 0.000000 1.000000
vt 1.000000 1.000000
vt 1.000000 0.500000
vt 0.000000 0.000000
vt 0.000000 0.500000
vt 1.000000 0.500000
vt 1.000000 0.000000
vt 0.000000 0.000000
vt 0.000000 0.500000
vt 1.000000 0.500000
vt 1.000000 0.000000
vt 0.000000 0.000000
vt 0.000000 0.500000
vt 1.000000 0.500000
vt 1.000000 0.000000
vt 0.000000 0.500000
vt 0.000000 1.000000
vt 1.000000 1.000000
vt 1.000000 0.500000
vt 0.000000 0.000000
vt 0.000000 0.500000
vt 1.000000 0.500000
vt 1.000000 0.000000
vt 0.000000 0.000000
vt 0.000000 0.500000
vt 1.000000 0.500000
vt 1.000000 0.000000
vt 0.000000 0.000000
vt 0.000000 0.500000
vt 1.000000 0.500000
vt 1.000000 0.000000
vt 0.000000 0.500000
vt 0.000000 1.000000
vt 1.000000 1.000000
vt 1.000000 0.500000
vt 0.000000 0.000000
vt 0.000000 0.500000
vt 1.000000 0.500000
vt 1.000000 0.000000
vt 0.000000 0.000000
vt 0.000000 0.500000
vt 1.000000 0.500000
vt 1.000000 0.000000
vt 0.000000 0.000000
vt 0.000000 0.500000
vt 1.000000 0.500000
vt 1.000000 0.000000
vt 0.000000 0.500000
vt 0.000000 1.000000
vt 1.000000 1.000000
vt 1.000000 0.500000
vt 0.000000 0.000000
vt 0.000000 0.500000
vt 1.000000 0.500000
vt 1.000000 0.000000
vt 0.000000 0.000000
vt 0.000000 0.500000
vt 1.000000 0.500000
vt 1.000000 0.000000
vt 0.000000 0.000000
vt 0.000000 0.500000
vt 1.000000 0.500000
vt 1.000000 0.000000
vt 0.000000 0.500000
vt 0.000000 1.000000
vt 1.000000 1.000000
vt 1.000000 0.500000
vt 0.000000 0.000000
vt 0.000000 0.500000
vt 1.000000 0.500000
vt 1.000000 0.000000
vt 0.000000 0.000000
vt 0.000000 0.500000
vt 1.000000 0.500000
vt 1.000000 0.000000
vt 0.000000 0.000000
vt 0.000000 0.500000
vt 1.000000 0.500000
vt 1.000000 0.000000
vt 0.000000 0.500000
vt 0.000000 1.000000
vt 1.000000 1.000000
vt 1.000000 0.500000
vt 0.000000 0.000000
vt 0.000000 0.500000
vt 1.000000 0.500000
vt 1.000000 0.000000
vt 0.000000 0.000000
vt 0.000000 0.500000
vt 1.000000 0.500000
vt 1.000000 0.000000
vt 0.000000 0.000000
vt 0.000000 0.500000
vt 1.000000 0.500000
vt 1.000000 0.000000
vt 0.000000 0.500000
vt 0.000000 1.000000
vt 1.000000 1.000000
vt 1.000000 0.500000
vt 0.000000 0.000000
vt 0.000000 0.500000
vt 1.000000 0.500000
vt 1.000000 0.000000
vn 0.0035 0.9832 0.1824
vn 0.0346 0.9897 0.1389
vn -0.0247 0.9749 0.2213
vn -0.0578 0.9621 0.2664
vn -0.1030 0.9619 0.2533
vn -0.1147 0.9577 0.2639
vn -0.0904 0.9661 0.2419
vn -0.0790 0.9696 0.2316
vn 0.0669 0.9705 0.2318
vn 0.0708 0.9727 0.2212
vn 0.0628 0.9680 0.2429
vn 0.0588 0.9655 0.2537
vn 0.0259 0.9552 0.2947
vn 0.0069 0.9358 0.3526
vn 0.0468 0.9723 0.2292
vn 0.0644 0.9829 0.1725
vn -0.3568 0.9190 0.1678
vn -0.3419 0.9243 0.1698
vn -0.3834 0.9089 0.1641
vn -0.4013 0.9016 0.1615
vn -0.3928 0.9190 0.0349
vn -0.4475 0.8943 0.0089
vn -0.3305 0.9417 0.0634
vn -0.2712 0.9583 0.0896
vn -0.1868 0.9582 0.2165
vn -0.2775 0.9369 0.2125
vn -0.2172 0.9543 0.2053
vn -0.3460 0.9121 0.2198
vn -0.4034 0.8869 0.2251
vn -0.2650 0.9389 -0.2196
vn -0.2934 0.9146 -0.2782
vn -0.2366 0.9580 -0.1622
vn -0.2041 0.9740 -0.0982
vn -0.0258 0.9604 -0.2774
vn -0.0260 0.9642 -0.2640
vn -0.0256 0.9563 -0.2912
vn -0.0254 0.9521 -0.3047
vn -0.2134 0.9716 -0.1025
vn -0.2088 0.9734 -0.0938
vn -0.2168 0.9701 -0.1091
vn -0.2211 0.9682 -0.1174
vn -0.2651 0.9496 -0.1671
vn -0.3130 0.9239 -0.2203
vn -0.2148 0.9702 -0.1122
vn -0.1623 0.9852 -0.0555
vn 0.2406 0.9083 -0.3423
vn 0.2713 0.8887 -0.3695
vn 0.2057 0.9278 -0.3112
vn 0.1633 0.9481 -0.2728
vn 0.3534 0.8709 -0.3415
vn 0.4101 0.8288 -0.3808
vn 0.2876 0.9112 -0.2951
vn 0.2330 0.9381 -0.2561
vn -0.1438 0.9608 -0.2369
vn -0.1464 0.9632 -0.2252
vn -0.1410 0.9582 -0.2488
vn -0.1382 0.9553 -0.2612
vn 0.1314 0.8531 -0.5049
vn 0.1299 0.8545 -0.5030
vn 0.1329 0.8518 -0.5068
vn 0.1342 0.8506 -0.5084
vn 0.1812 0.9331 -0.3106
vn 0.1934 0.9285 -0.3171
vn 0.1670 0.9383 -0.3029
vn 0.1546 0.9425 -0.2962
vn 0.0621 0.9389 -0.3384
vn 0.0475 0.9438 -0.3270
vn 0.0802 0.9324 -0.3525
vn 0.0949 0.9266 -0.3638
vn 0.3429 0.9347 -0.0936
vn 0.3517 0.9317 -0.0907
vn 0.3312 0.9385 -0.0974
vn 0.3220 0.9414 -0.1005
vn 0.3377 0.8982 -0.2814
vn 0.3423 0.8960 -0.2828
vn 0.3315 0.9011 -0.2794
vn 0.3247 0.9043 -0.2773
vn 0.1573 0.9839 0.0845
vn 0.1331 0.9902 0.0419
vn 0.2016 0.9657 0.1637
vn 0.2289 0.9497 0.2135
vn 0.1730 0.9625 0.2089
vn 0.1798 0.9552 0.2351
vn 0.1650 0.9701 0.1781
vn 0.1596 0.9745 0.1576
vn 0.2093 0.9677 0.1404
vn 0.2010 0.9719 0.1221
vn 0.2270 0.9571 0.1799
vn 0.2357 0.9511 0.1995
vn 0.2971 0.9355 0.1915
vn 0.2806 0.9517 0.1247
vn 0.3234 0.8934 0.3118
vn 0.3327 0.8717 0.3597
usemtl Material_#9
s 1
f 81/1/1 82/2/2 83/3/3
f 81/1/1 83/3/3 84/4/4
f 85/5/5 86/6/6 87/7/7
f 85/5/5 87/7/7 88/8/8
f 89/9/9 90/10/10 91/11/11
f 89/9/9 91/11/11 92/12/12
f 93/13/13 94/14/14 95/15/15
f 93/13/13 95/15/15 96/16/16
f 97/17/17 98/18/18 99/19/19
f 97/17/17 99/19/19 100/20/20
f 37/21/21 38/22/22 39/23/23
f 37/21/21 39/23/23 40/24/24
f 41/25/25 42/26/25 43/27/25
f 41/25/25 43/27/25 44/28/25
f 101/29/26 102/30/27 103/31/28
f 101/29/26 103/31/28 104/32/29
f 49/33/30 50/34/31 51/35/32
f 49/33/30 51/35/32 52/36/33
f 53/37/34 54/38/35 55/39/36
f 53/37/34 55/39/36 56/40/37
f 57/41/38 58/42/39 59/43/40
f 57/41/38 59/43/40 60/44/41
f 61/45/42 62/46/43 63/47/44
f 61/45/42 63/47/44 64/48/45
f 65/49/46 66/50/47 67/51/48
f 65/49/46 67/51/48 68/52/49
f 69/53/50 70/54/51 71/55/52
f 69/53/50 71/55/52 72/56/53
f 73/57/54 74/58/55 75/59/56
f 73/57/54 75/59/56 76/60/57
f 77/61/58 78/62/59 79/63/60
f 77/61/58 79/63/60 80/64/61
f 3/65/62 1/66/63 2/67/64
f 3/65/62 2/67/64 4/68/65
f 7/69/66 5/70/67 6/71/68
f 7/69/66 6/71/68 8/72/69
f 11/73/70 9/74/71 10/75/72
f 11/73/70 10/75/72 12/76/73
f 15/77/74 13/78/75 14/79/76
f 15/77/74 14/79/76 16/80/77
f 17/81/78 18/82/79 19/83/80
f 17/81/78 19/83/80 20/84/81
f 21/85/82 22/86/83 23/87/84
f 21/85/82 23/87/84 24/88/85
f 25/89/86 26/90/87 27/91/88
f 25/89/86 27/91/88 28/92/89
f 29/93/90 30/94/91 31/95/92
f 29/93/90 31/95/92 32/96/93
f 33/97/17 34/98/18 35/99/19
f 33/97/17 35/99/19 36/100/20
f 45/101/26 46/102/27 47/103/28
f 45/101/26 47/103/28 48/104/29
