# Blender v3.0.0 OBJ File: 'untitled.blend'
# www.blender.org
mtllib Kasur.mtl
o Cube.002_Cube.028
v 19.000923 1.023239 -12.794415
v 18.999767 0.877936 -12.649117
v 18.854467 1.023239 -12.650272
v 19.000769 0.950683 -12.775004
v 18.928215 1.023239 -12.775581
v 18.931135 0.953753 -12.756701
v 18.927212 0.897348 -12.649694
v 19.000343 0.897348 -12.721670
v 18.930836 0.916204 -12.719152
v 18.874456 1.023239 -12.722672
v 18.873878 0.950683 -12.650118
v 18.893288 0.953753 -12.719452
v 23.621506 1.023239 -12.757657
v 23.765650 1.023239 -12.611202
v 23.620350 0.877936 -12.612358
v 23.693905 1.023239 -12.737669
v 23.621351 0.950683 -12.738246
v 23.690685 0.953753 -12.718838
v 23.746239 0.950683 -12.611357
v 23.746815 1.023239 -12.683910
v 23.727936 0.953753 -12.680990
v 23.620928 0.897348 -12.684912
v 23.692904 0.897348 -12.611781
v 23.690388 0.916204 -12.681290
v 18.927090 1.023239 -3.513520
v 18.782946 1.023239 -3.659975
v 18.928246 0.877936 -3.658819
v 18.854691 1.023239 -3.533509
v 18.927244 0.950683 -3.532931
v 18.857910 0.953753 -3.552340
v 18.802357 0.950683 -3.659820
v 18.801781 1.023239 -3.587266
v 18.820660 0.953753 -3.590187
v 18.927668 0.897348 -3.586265
v 18.855692 0.897348 -3.659396
v 18.858208 0.916204 -3.589888
v 23.694128 1.023239 -3.620904
v 23.547672 1.023239 -3.476762
v 23.548828 0.877936 -3.622060
v 23.674139 1.023239 -3.548505
v 23.674717 0.950683 -3.621059
v 23.655308 0.953753 -3.551725
v 23.547827 0.950683 -3.496173
v 23.620380 1.023239 -3.495595
v 23.617460 0.953753 -3.514476
v 23.621384 0.897348 -3.621483
v 23.548252 0.897348 -3.549507
v 23.617760 0.916204 -3.552024
v 19.000923 1.641008 -12.794415
v 18.854467 1.641008 -12.650272
v 18.999767 1.786311 -12.649117
v 18.928215 1.641008 -12.775581
v 19.000769 1.713564 -12.775004
v 18.931135 1.710494 -12.756701
v 18.873878 1.713564 -12.650118
v 18.874456 1.641008 -12.722672
v 18.893288 1.710494 -12.719452
v 19.000343 1.766899 -12.721670
v 18.927212 1.766899 -12.649694
v 18.930836 1.748043 -12.719152
v 23.621506 1.641008 -12.757657
v 23.620350 1.786311 -12.612358
v 23.765650 1.641008 -12.611202
v 23.621351 1.713564 -12.738246
v 23.693905 1.641008 -12.737669
v 23.690685 1.710494 -12.718838
v 23.692904 1.766899 -12.611781
v 23.620928 1.766899 -12.684912
v 23.690388 1.748043 -12.681290
v 23.746815 1.641008 -12.683910
v 23.746239 1.713564 -12.611357
v 23.727936 1.710494 -12.680990
v 23.694128 1.641008 -3.620904
v 23.548828 1.786311 -3.622060
v 23.547672 1.641008 -3.476762
v 23.674717 1.713564 -3.621059
v 23.674139 1.641008 -3.548505
v 23.655308 1.710494 -3.551725
v 23.548252 1.766899 -3.549507
v 23.621384 1.766899 -3.621483
v 23.617760 1.748043 -3.552024
v 23.620380 1.641008 -3.495595
v 23.547827 1.713564 -3.496173
v 23.617460 1.710494 -3.514476
v 18.927090 1.641008 -3.513520
v 18.928246 1.786311 -3.658819
v 18.782946 1.641008 -3.659975
v 18.927244 1.713564 -3.532931
v 18.854691 1.641008 -3.533509
v 18.857910 1.710494 -3.552340
v 18.855692 1.766899 -3.659396
v 18.927668 1.766899 -3.586265
v 18.858208 1.748043 -3.589888
v 18.801781 1.641008 -3.587266
v 18.802357 1.713564 -3.659820
v 18.820660 1.710494 -3.590187
vt 0.868252 0.512491
vt 0.631748 0.737509
vt 0.631748 0.512491
vt 0.868252 0.505415
vt 0.631748 0.505415
vt 0.631748 0.505415
vt 0.872075 0.737509
vt 0.872075 0.512491
vt 0.872075 0.512491
vt 0.627925 0.512491
vt 0.627925 0.737509
vt 0.627925 0.737509
vt 0.631748 0.744585
vt 0.868252 0.744585
vt 0.868252 0.744585
vt 0.872075 0.737509
vt 0.872075 0.741042
vt 0.872075 0.737509
vt 0.872075 0.740893
vt 0.868252 0.741042
vt 0.870161 0.737509
vt 0.868252 0.737509
vt 0.868252 0.744585
vt 0.870080 0.740893
vt 0.870161 0.744585
vt 0.872075 0.744585
vt 0.870080 0.744585
vt 0.872075 0.508958
vt 0.872075 0.512491
vt 0.872075 0.505415
vt 0.872075 0.509107
vt 0.868252 0.505415
vt 0.870161 0.505415
vt 0.870080 0.505415
vt 0.870080 0.505415
vt 0.870161 0.512491
vt 0.868252 0.508958
vt 0.868252 0.512491
vt 0.870080 0.509107
vt 0.627925 0.741042
vt 0.627925 0.737509
vt 0.627925 0.744585
vt 0.627925 0.740893
vt 0.631748 0.744585
vt 0.629839 0.744585
vt 0.629920 0.744585
vt 0.629920 0.744585
vt 0.629839 0.737509
vt 0.631748 0.741042
vt 0.631748 0.737509
vt 0.629920 0.740893
vt 0.629839 0.505415
vt 0.631748 0.505415
vt 0.627925 0.505415
vt 0.629920 0.505415
vt 0.627925 0.512491
vt 0.627925 0.508958
vt 0.627925 0.512491
vt 0.627925 0.509107
vt 0.631748 0.508958
vt 0.629839 0.512491
vt 0.631748 0.512491
vt 0.629920 0.509107
vt 0.872075 0.741042
vt 0.872075 0.737509
vt 0.872075 0.737509
vt 0.872075 0.744585
vt 0.872075 0.740893
vt 0.868252 0.744585
vt 0.870161 0.744585
vt 0.870080 0.744585
vt 0.870080 0.744585
vt 0.870161 0.737509
vt 0.868252 0.741042
vt 0.868252 0.737509
vt 0.870080 0.740893
vt 0.872075 0.512491
vt 0.872075 0.508958
vt 0.872075 0.509107
vt 0.872075 0.509107
vt 0.868252 0.508958
vt 0.870161 0.512491
vt 0.868252 0.505415
vt 0.870080 0.509107
vt 0.870161 0.505415
vt 0.868252 0.505415
vt 0.872075 0.505415
vt 0.870080 0.505415
vt 0.631748 0.505415
vt 0.629839 0.505415
vt 0.629920 0.505415
vt 0.629920 0.505415
vt 0.629839 0.512491
vt 0.631748 0.508958
vt 0.627925 0.509107
vt 0.629920 0.509107
vt 0.627925 0.508958
vt 0.627925 0.512491
vt 0.627925 0.512491
vt 0.627925 0.505415
vt 0.627925 0.737509
vt 0.627925 0.741042
vt 0.627925 0.740893
vt 0.627925 0.740893
vt 0.631748 0.741042
vt 0.629839 0.737509
vt 0.631748 0.744585
vt 0.629920 0.740893
vt 0.629839 0.744585
vt 0.631748 0.744585
vt 0.627925 0.744585
vt 0.629920 0.744585
vt 0.872075 0.740893
vt 0.872075 0.744585
vt 0.872075 0.505415
vt 0.868252 0.505415
vt 0.627925 0.744585
vt 0.631748 0.744585
vt 0.627925 0.505415
vt 0.627925 0.509107
vt 0.872075 0.744585
vt 0.868252 0.744585
vt 0.872075 0.512491
vt 0.872075 0.505415
vt 0.631748 0.505415
vt 0.627925 0.505415
vt 0.627925 0.737509
vt 0.627925 0.744585
vn 0.0000 1.0000 0.0000
vn 1.0000 0.0000 0.0080
vn 0.0080 0.0000 -1.0000
vn -0.0080 0.0000 1.0000
vn -1.0000 0.0000 -0.0080
vn -0.2428 -0.2502 -0.9373
vn -0.2123 -0.6901 -0.6918
vn -0.2482 -0.9353 -0.2522
vn -0.6884 -0.6901 -0.2233
vn -0.9333 -0.2502 -0.2577
vn -0.6846 -0.2177 -0.6956
vn -0.5727 -0.5773 -0.5820
vn 0.2577 -0.2502 -0.9333
vn 0.6956 -0.2178 -0.6846
vn 0.9372 -0.2502 -0.2428
vn 0.6918 -0.6901 -0.2123
vn 0.2522 -0.9353 -0.2482
vn 0.2233 -0.6901 -0.6884
vn 0.5819 -0.5773 -0.5728
vn -0.2577 -0.2502 0.9333
vn -0.6956 -0.2178 0.6846
vn -0.9373 -0.2502 0.2428
vn -0.6918 -0.6901 0.2123
vn -0.2522 -0.9353 0.2482
vn -0.2233 -0.6901 0.6884
vn -0.5819 -0.5773 0.5727
vn 0.9333 -0.2503 0.2577
vn 0.6846 -0.2177 0.6956
vn 0.2428 -0.2502 0.9373
vn 0.2123 -0.6901 0.6918
vn 0.2482 -0.9353 0.2522
vn 0.6884 -0.6901 0.2233
vn 0.5727 -0.5773 0.5819
vn -0.2428 0.2502 -0.9373
vn -0.6846 0.2178 -0.6956
vn -0.9333 0.2503 -0.2577
vn -0.6884 0.6902 -0.2233
vn -0.2482 0.9353 -0.2522
vn -0.2123 0.6902 -0.6918
vn -0.5727 0.5773 -0.5819
vn 0.2577 0.2502 -0.9333
vn 0.2232 0.6902 -0.6884
vn 0.2522 0.9353 -0.2482
vn 0.6919 0.6901 -0.2123
vn 0.9372 0.2503 -0.2428
vn 0.6956 0.2178 -0.6846
vn 0.5819 0.5773 -0.5728
vn 0.9333 0.2502 0.2577
vn 0.6884 0.6901 0.2233
vn 0.2482 0.9353 0.2522
vn 0.2123 0.6902 0.6918
vn 0.2428 0.2502 0.9373
vn 0.6846 0.2178 0.6956
vn 0.5727 0.5773 0.5819
vn -0.2577 0.2502 0.9333
vn -0.2233 0.6901 0.6884
vn -0.2522 0.9353 0.2482
vn -0.6919 0.6901 0.2123
vn -0.9373 0.2502 0.2428
vn -0.6956 0.2177 0.6846
vn -0.5819 0.5773 0.5727
vn 0.0077 -0.2584 -0.9660
vn 0.0056 -0.7071 -0.7071
vn 0.0021 -0.9660 -0.2584
vn 0.9660 -0.2584 0.0077
vn 0.7071 -0.7071 0.0056
vn 0.2585 -0.9660 0.0021
vn -0.0077 -0.2584 0.9660
vn -0.0056 -0.7071 0.7071
vn -0.0021 -0.9660 0.2584
vn -0.9660 -0.2584 -0.0077
vn -0.7071 -0.7071 -0.0056
vn -0.2585 -0.9660 -0.0021
vn 0.0021 0.9660 -0.2584
vn 0.0056 0.7071 -0.7071
vn 0.0077 0.2584 -0.9660
vn 0.2584 0.9660 0.0021
vn 0.7071 0.7071 0.0056
vn 0.9660 0.2585 0.0077
vn -0.0021 0.9660 0.2584
vn -0.0056 0.7071 0.7071
vn -0.0077 0.2584 0.9660
vn -0.2585 0.9660 -0.0021
vn -0.7070 0.7072 -0.0056
vn -0.9660 0.2584 -0.0077
vn 0.9639 0.0000 0.2661
vn 0.7015 0.0000 0.7127
vn 0.2508 0.0000 0.9681
vn -0.9680 0.0000 0.2508
vn -0.7127 0.0000 0.7015
vn -0.2661 0.0000 0.9639
vn -0.9639 0.0000 -0.2661
vn -0.7014 0.0000 -0.7127
vn -0.2508 0.0000 -0.9680
vn 0.9680 0.0000 -0.2508
vn 0.7127 0.0000 -0.7015
vn 0.2661 0.0000 -0.9639
vn 0.0000 -1.0000 -0.0000
vn -0.2561 -0.2635 -0.9301
vn -0.2614 -0.9280 -0.2656
vn -0.6884 -0.6902 -0.2233
vn -0.9259 -0.2635 -0.2709
vn -0.6846 -0.2178 -0.6956
vn 0.2708 -0.2635 -0.9259
vn 0.9301 -0.2635 -0.2561
vn 0.6919 -0.6901 -0.2123
vn 0.2655 -0.9280 -0.2613
vn 0.2232 -0.6901 -0.6884
vn -0.2709 -0.2635 0.9259
vn -0.6956 -0.2177 0.6846
vn -0.9301 -0.2635 0.2561
vn -0.6919 -0.6901 0.2123
vn -0.2655 -0.9280 0.2613
vn 0.9259 -0.2634 0.2709
vn 0.6846 -0.2178 0.6956
vn 0.2561 -0.2635 0.9301
vn 0.2614 -0.9280 0.2656
vn -0.2561 0.2635 -0.9301
vn -0.6846 0.2177 -0.6956
vn -0.9259 0.2634 -0.2709
vn -0.6884 0.6901 -0.2233
vn -0.2614 0.9280 -0.2656
vn -0.2123 0.6901 -0.6918
vn 0.2708 0.2635 -0.9259
vn 0.2232 0.6901 -0.6884
vn 0.2655 0.9280 -0.2614
vn 0.9301 0.2634 -0.2561
vn 0.9259 0.2634 0.2709
vn 0.2614 0.9280 0.2656
vn 0.2123 0.6901 0.6918
vn 0.2561 0.2635 0.9301
vn 0.6846 0.2177 0.6956
vn -0.2708 0.2635 0.9259
vn -0.2655 0.9280 0.2613
vn -0.6918 0.6901 0.2123
vn -0.9301 0.2635 0.2561
vn -0.6956 0.2178 0.6846
vn 0.9660 -0.2585 0.0077
vn 0.2584 -0.9660 0.0021
vn -0.0077 -0.2585 0.9660
vn -0.9660 -0.2585 -0.0077
vn -0.2584 -0.9660 -0.0021
vn 0.0021 0.9660 -0.2585
vn 0.0077 0.2585 -0.9660
vn 0.9660 0.2584 0.0077
vn -0.0021 0.9660 0.2585
vn -0.0077 0.2585 0.9660
vn -0.2584 0.9660 -0.0021
vn -0.7071 0.7071 -0.0056
vn -0.9660 0.2585 -0.0077
vn 0.2507 0.0000 0.9681
vn -0.7015 0.0000 -0.7127
usemtl None
s off
f 62/1/1 86/2/1 74/3/1
f 14/4/2 73/5/2 37/6/2
f 1/7/3 61/8/3 13/9/3
f 38/10/4 85/11/4 25/12/4
f 26/13/5 50/14/5 3/15/5
f 4/16/6 5/17/6 1/7/6
f 8/18/7 6/19/7 4/16/7
f 7/20/8 8/21/8 2/22/8
f 11/23/9 9/24/9 7/20/9
f 10/25/10 11/23/10 3/15/10
f 5/26/11 12/27/11 10/25/11
f 6/19/12 9/24/12 12/27/12
f 16/28/13 17/29/13 13/9/13
f 16/28/14 21/30/14 18/31/14
f 19/32/15 20/33/15 14/4/15
f 19/32/16 24/34/16 21/35/16
f 22/36/17 23/37/17 15/38/17
f 22/36/18 18/31/18 24/39/18
f 18/31/19 21/35/19 24/39/19
f 28/40/20 29/41/20 25/12/20
f 28/40/21 33/42/21 30/43/21
f 31/44/22 32/45/22 26/13/22
f 31/44/23 36/46/23 33/47/23
f 34/48/24 35/49/24 27/50/24
f 34/48/25 30/43/25 36/51/25
f 30/43/26 33/47/26 36/51/26
f 40/52/27 41/53/27 37/6/27
f 44/54/28 42/55/28 40/52/28
f 43/56/29 44/57/29 38/10/29
f 47/58/30 45/59/30 43/56/30
f 46/60/31 47/61/31 39/62/31
f 41/53/32 48/63/32 46/60/32
f 42/55/33 45/59/33 48/63/33
f 52/64/34 53/65/34 49/66/34
f 52/64/35 57/67/35 54/68/35
f 55/69/36 56/70/36 50/14/36
f 55/69/37 60/71/37 57/72/37
f 58/73/38 59/74/38 51/75/38
f 58/73/39 54/68/39 60/76/39
f 54/68/40 57/72/40 60/76/40
f 64/77/41 65/78/41 61/8/41
f 64/77/42 69/79/42 66/80/42
f 67/81/43 68/82/43 62/1/43
f 71/83/44 69/84/44 67/81/44
f 70/85/45 71/83/45 63/86/45
f 65/87/46 72/88/46 70/85/46
f 66/80/47 69/84/47 72/88/47
f 76/89/48 77/90/48 73/5/48
f 76/89/49 81/91/49 78/92/49
f 79/93/50 80/94/50 74/3/50
f 79/93/51 84/95/51 81/96/51
f 82/97/52 83/98/52 75/99/52
f 82/97/53 78/100/53 84/95/53
f 78/92/54 81/96/54 84/95/54
f 88/101/55 89/102/55 85/11/55
f 88/101/56 93/103/56 90/104/56
f 91/105/57 92/106/57 86/2/57
f 95/107/58 93/108/58 91/105/58
f 94/109/59 95/107/59 87/110/59
f 89/111/60 96/112/60 94/109/60
f 90/104/61 93/108/61 96/112/61
f 13/9/62 4/16/62 1/7/62
f 17/29/63 8/21/63 4/16/63
f 22/36/64 2/22/64 8/21/64
f 37/6/65 19/32/65 14/4/65
f 41/53/66 23/37/66 19/32/66
f 46/60/67 15/38/67 23/37/67
f 25/12/68 43/56/68 38/10/68
f 29/41/69 47/61/69 43/56/69
f 34/48/70 39/62/70 47/61/70
f 3/15/71 31/44/71 26/13/71
f 11/23/72 35/49/72 31/44/72
f 7/20/73 27/50/73 35/49/73
f 62/1/74 58/73/74 51/75/74
f 68/82/75 53/65/75 58/73/75
f 64/77/76 49/66/76 53/65/76
f 74/3/77 67/81/77 62/1/77
f 80/94/78 71/83/78 67/81/78
f 76/89/79 63/86/79 71/83/79
f 86/2/80 79/93/80 74/3/80
f 92/106/81 83/98/81 79/93/81
f 88/101/82 75/99/82 83/98/82
f 51/75/83 91/105/83 86/2/83
f 59/74/84 95/107/84 91/105/84
f 55/69/85 87/110/85 95/107/85
f 73/5/86 40/52/86 37/6/86
f 77/90/87 44/57/87 40/52/87
f 44/57/88 75/99/88 38/10/88
f 87/110/89 32/45/89 94/109/89
f 32/45/90 89/102/90 94/109/90
f 28/40/91 85/11/91 89/102/91
f 50/14/92 10/25/92 3/15/92
f 56/70/93 5/17/93 10/25/93
f 5/17/94 49/66/94 1/7/94
f 63/86/95 20/33/95 70/85/95
f 20/33/96 65/78/96 70/85/96
f 16/28/97 61/8/97 65/78/97
f 15/38/98 27/50/98 2/22/98
f 62/1/1 51/75/1 86/2/1
f 14/4/2 63/86/2 73/5/2
f 1/7/3 49/66/3 61/8/3
f 38/10/4 75/99/4 85/11/4
f 26/13/5 87/110/5 50/14/5
f 4/16/99 6/19/99 5/17/99
f 8/18/7 9/113/7 6/19/7
f 7/20/100 9/24/100 8/21/100
f 11/23/101 12/27/101 9/24/101
f 10/25/102 12/27/102 11/23/102
f 5/26/103 6/114/103 12/27/103
f 16/28/104 18/31/104 17/29/104
f 16/28/14 20/115/14 21/30/14
f 19/32/105 21/35/105 20/33/105
f 19/32/106 23/116/106 24/34/106
f 22/36/107 24/39/107 23/37/107
f 22/36/108 17/29/108 18/31/108
f 28/40/109 30/43/109 29/41/109
f 28/40/110 32/117/110 33/42/110
f 31/44/111 33/47/111 32/45/111
f 31/44/112 35/118/112 36/46/112
f 34/48/113 36/51/113 35/49/113
f 34/48/25 29/41/25 30/43/25
f 40/52/114 42/55/114 41/53/114
f 44/54/115 45/119/115 42/55/115
f 43/56/116 45/59/116 44/57/116
f 47/58/30 48/120/30 45/59/30
f 46/60/117 48/63/117 47/61/117
f 41/53/32 42/55/32 48/63/32
f 52/64/118 54/68/118 53/65/118
f 52/64/119 56/121/119 57/67/119
f 55/69/120 57/72/120 56/70/120
f 55/69/121 59/122/121 60/71/121
f 58/73/122 60/76/122 59/74/122
f 58/73/123 53/65/123 54/68/123
f 64/77/124 66/80/124 65/78/124
f 64/77/125 68/123/125 69/79/125
f 67/81/126 69/84/126 68/82/126
f 71/83/44 72/88/44 69/84/44
f 70/85/127 72/88/127 71/83/127
f 65/87/46 66/124/46 72/88/46
f 76/89/128 78/92/128 77/90/128
f 76/89/49 80/125/49 81/91/49
f 79/93/129 81/96/129 80/94/129
f 79/93/130 83/98/130 84/95/130
f 82/97/131 84/95/131 83/98/131
f 82/97/132 77/126/132 78/100/132
f 88/101/133 90/104/133 89/102/133
f 88/101/56 92/127/56 93/103/56
f 91/105/134 93/108/134 92/106/134
f 95/107/135 96/112/135 93/108/135
f 94/109/136 96/112/136 95/107/136
f 89/111/137 90/128/137 96/112/137
f 13/9/62 17/29/62 4/16/62
f 17/29/63 22/36/63 8/21/63
f 22/36/64 15/38/64 2/22/64
f 37/6/138 41/53/138 19/32/138
f 41/53/66 46/60/66 23/37/66
f 46/60/139 39/62/139 15/38/139
f 25/12/140 29/41/140 43/56/140
f 29/41/69 34/48/69 47/61/69
f 34/48/70 27/50/70 39/62/70
f 3/15/141 11/23/141 31/44/141
f 11/23/72 7/20/72 35/49/72
f 7/20/142 2/22/142 27/50/142
f 62/1/143 68/82/143 58/73/143
f 68/82/75 64/77/75 53/65/75
f 64/77/144 61/8/144 49/66/144
f 74/3/77 80/94/77 67/81/77
f 80/94/78 76/89/78 71/83/78
f 76/89/145 73/5/145 63/86/145
f 86/2/146 92/106/146 79/93/146
f 92/106/81 88/101/81 83/98/81
f 88/101/147 85/11/147 75/99/147
f 51/75/148 59/74/148 91/105/148
f 59/74/149 55/69/149 95/107/149
f 55/69/150 50/14/150 87/110/150
f 73/5/86 77/90/86 40/52/86
f 77/90/87 82/97/87 44/57/87
f 44/57/151 82/97/151 75/99/151
f 87/110/89 26/13/89 32/45/89
f 32/45/90 28/40/90 89/102/90
f 28/40/91 25/12/91 85/11/91
f 50/14/92 56/70/92 10/25/92
f 56/70/152 52/64/152 5/17/152
f 5/17/94 52/64/94 49/66/94
f 63/86/95 14/4/95 20/33/95
f 20/33/96 16/28/96 65/78/96
f 16/28/97 13/9/97 61/8/97
f 15/38/98 39/62/98 27/50/98
