# Blender v3.0.0 OBJ File: 'untitled.blend'
# www.blender.org
mtllib CPU.mtl
o cpu_Cube.026
v 9.260342 2.400219 -10.755919
v 9.260342 2.405998 -10.735624
v 9.252192 2.409956 -10.746241
v 9.260342 3.925670 -10.735624
v 9.260342 3.931449 -10.749220
v 9.252192 3.921712 -10.746241
v 9.260342 2.400219 -12.384896
v 9.252192 2.409956 -12.394575
v 9.260342 2.406114 -12.405191
v 9.260342 3.931449 -12.391596
v 9.260342 3.925554 -12.405191
v 9.252192 3.921712 -12.394575
v 9.914490 2.400219 -10.755919
v 9.922640 2.406732 -10.742724
v 9.914490 2.405998 -10.735624
v 9.914490 3.931449 -10.749220
v 9.914490 3.925670 -10.735624
v 9.922640 3.924937 -10.742724
v 9.914490 2.400219 -12.384896
v 9.914490 2.406114 -12.405191
v 9.922640 2.406732 -12.398091
v 9.914490 3.931449 -12.391596
v 9.922640 3.924937 -12.398091
v 9.914490 3.925554 -12.405191
v 9.817582 3.931449 -12.272882
v 9.357249 3.931449 -12.272883
v 9.357249 3.931449 -10.867933
v 9.817582 3.931449 -10.867932
v 9.357249 3.911392 -12.272883
v 9.817582 3.911392 -12.272882
v 9.817582 3.911392 -10.867932
v 9.357249 3.911392 -10.867933
v 9.276813 2.543708 -10.715881
v 9.276813 3.787960 -10.715881
v 9.898019 2.543708 -10.715881
v 9.898019 3.787960 -10.715881
v 9.276813 2.543708 -10.729759
v 9.276813 3.787960 -10.729759
v 9.898019 3.787960 -10.729759
v 9.898019 2.543708 -10.729759
v 9.282814 3.896731 -12.405191
v 9.282814 2.434938 -12.405191
v 9.892017 2.434938 -12.405191
v 9.892017 3.896731 -12.405191
vt 0.621961 0.753039
vt 0.378039 0.996961
vt 0.378039 0.753039
vt 0.621961 0.503039
vt 0.378039 0.746961
vt 0.378039 0.503039
vt 0.835826 0.711120
vt 0.835826 0.538880
vt 0.835826 0.538880
vt 0.621961 0.003039
vt 0.378039 0.246961
vt 0.378039 0.003039
vt 0.621961 0.253039
vt 0.378039 0.253039
vt 0.378039 0.253039
vt 0.128039 0.746961
vt 0.125000 0.503039
vt 0.128039 0.503039
vt 0.871961 0.746961
vt 0.875000 0.503039
vt 0.875000 0.746961
vt 0.371961 0.503039
vt 0.371961 0.746961
vt 0.628039 0.746961
vt 0.628039 0.503039
vt 0.664174 0.538880
vt 0.871961 0.503039
vt 0.664174 0.711120
vt 0.664174 0.538880
vt 0.835826 0.711120
vt 0.664174 0.711120
vt 0.378039 0.496961
vt 0.621961 0.496961
vt 0.621961 0.496961
vt 0.628039 0.500000
vt 0.871961 0.500000
vt 0.871961 0.500000
vt 0.128039 0.500000
vt 0.371961 0.500000
vt 0.371961 0.500000
vt 0.621961 0.996961
vt 0.621961 0.746961
vt 0.621961 0.246961
vt 0.621961 0.253039
vt 0.125000 0.746961
vt 0.378039 0.496961
vt 0.628039 0.500000
vt 0.128039 0.500000
vt 0.128039 0.750000
vt 0.625000 0.996961
vt 0.621961 1.000000
vt 0.375000 0.746961
vt 0.371961 0.750000
vt 0.628039 0.750000
vt 0.625000 0.746961
vt 0.375000 0.503039
vt 0.625000 0.503039
vt 0.378039 1.000000
vt 0.871961 0.750000
vt 0.378039 0.996961
vt 0.621961 0.753039
vt 0.378039 0.753039
vt 0.621961 0.753039
vt 0.378039 0.996961
vt 0.378039 0.753039
vt 0.621961 0.996961
vt 0.621961 0.996961
vn 0.0000 0.0000 1.0000
vn 1.0000 0.0000 0.0000
vn -1.0000 0.0000 0.0000
vn -0.0000 0.0000 -1.0000
vn -0.7668 -0.6419 0.0000
vn -0.7668 0.6419 0.0000
vn 0.6242 -0.7812 0.0000
vn 0.6242 0.7813 0.0000
vn 0.0000 -1.0000 0.0000
vn 0.0000 1.0000 -0.0000
vn 0.6243 -0.7812 0.0000
vn 0.6243 0.7812 0.0000
vn -0.6358 -0.7423 0.2114
vn -0.6911 0.6651 0.2827
vn -0.6322 -0.7440 -0.2161
vn -0.6890 0.6650 -0.2883
vn 0.3091 -0.9147 0.2604
vn 0.3900 0.8474 0.3602
vn 0.3011 -0.9158 -0.2660
vn 0.3840 0.8471 -0.3673
vn -0.7933 0.0000 0.6089
vn -0.7932 0.0000 -0.6090
vn 0.0000 -0.9603 -0.2789
vn 0.0000 0.9175 -0.3978
vn 0.6570 0.0000 -0.7539
vn 0.6569 0.0000 0.7540
vn 0.0000 -0.9618 0.2739
vn 0.0000 0.9203 0.3912
vn -0.7932 0.0000 0.6090
vn 0.6569 0.0000 -0.7540
vn 0.0000 -0.9618 0.2738
usemtl black
s off
f 17/1/1 2/2/1 15/3/1
f 23/4/2 14/5/2 21/6/2
f 27/7/2 29/8/2 26/9/2
f 6/10/3 8/11/3 3/12/3
f 11/13/4 42/14/4 9/15/4
f 1/16/5 8/17/5 7/18/5
f 5/19/6 12/20/6 6/21/6
f 19/22/7 14/5/7 13/23/7
f 16/24/8 23/4/8 22/25/8
f 19/22/9 1/16/9 7/18/9
f 22/25/10 26/9/10 25/26/10
f 5/19/10 26/9/10 10/27/10
f 5/19/10 28/28/10 27/7/10
f 22/25/10 28/28/10 16/24/10
f 26/9/1 30/29/1 25/26/1
f 28/28/4 32/30/4 27/7/4
f 25/26/3 31/31/3 28/28/3
f 20/32/4 44/33/4 24/34/4
f 24/35/4 41/36/4 11/37/4
f 9/38/4 43/39/4 20/40/4
f 17/1/1 4/41/1 2/2/1
f 23/4/2 18/42/2 14/5/2
f 27/7/2 32/30/2 29/8/2
f 6/10/3 12/43/3 8/11/3
f 11/13/4 41/44/4 42/14/4
f 1/16/5 3/45/5 8/17/5
f 5/19/6 10/27/6 12/20/6
f 19/22/11 21/6/11 14/5/11
f 16/24/12 18/42/12 23/4/12
f 19/22/9 13/23/9 1/16/9
f 22/25/10 10/27/10 26/9/10
f 5/19/10 27/7/10 26/9/10
f 5/19/10 16/24/10 28/28/10
f 22/25/10 25/26/10 28/28/10
f 26/9/1 29/8/1 30/29/1
f 28/28/4 31/31/4 32/30/4
f 25/26/3 30/29/3 31/31/3
f 20/32/4 43/46/4 44/33/4
f 24/35/4 44/47/4 41/36/4
f 9/38/4 42/48/4 43/39/4
usemtl blue_light
f 1/16/13 2/49/13 3/45/13
f 4/41/14 5/50/14 6/51/14
f 7/18/15 8/17/15 9/38/15
f 10/27/16 11/37/16 12/20/16
f 13/23/17 14/52/17 15/53/17
f 16/24/18 17/54/18 18/55/18
f 19/22/19 20/40/19 21/56/19
f 22/25/20 23/57/20 24/35/20
f 4/41/21 3/58/21 2/2/21
f 9/15/22 12/43/22 11/13/22
f 7/18/23 20/40/23 19/22/23
f 22/25/24 11/37/24 10/27/24
f 21/6/25 24/34/25 23/4/25
f 15/3/26 18/42/26 17/1/26
f 13/23/27 2/49/27 1/16/27
f 5/19/28 17/54/28 16/24/28
f 4/41/29 6/51/29 3/58/29
f 9/15/22 8/11/22 12/43/22
f 7/18/23 9/38/23 20/40/23
f 22/25/24 24/35/24 11/37/24
f 21/6/30 20/32/30 24/34/30
f 15/3/26 14/5/26 18/42/26
f 13/23/31 15/53/31 2/49/31
f 5/19/28 4/59/28 17/54/28
usemtl Plastic
f 30/29/10 32/30/10 31/31/10
f 33/60/4 36/61/4 35/62/4
f 39/63/1 37/64/1 40/65/1
f 33/60/2 38/66/2 34/67/2
f 34/67/9 39/63/9 36/61/9
f 36/61/3 40/65/3 35/62/3
f 35/62/10 37/64/10 33/60/10
f 41/44/4 43/46/4 42/14/4
f 30/29/10 29/8/10 32/30/10
f 33/60/4 34/67/4 36/61/4
f 39/63/1 38/66/1 37/64/1
f 33/60/2 37/64/2 38/66/2
f 34/67/9 38/66/9 39/63/9
f 36/61/3 39/63/3 40/65/3
f 35/62/10 40/65/10 37/64/10
f 41/44/4 44/33/4 43/46/4
