# Blender v3.0.0 OBJ File: 'untitled.blend'
# www.blender.org
mtllib monitor.mtl
o monitor_Cube.024
v 10.755713 2.392384 -11.282260
v 10.755713 2.392384 -11.800923
v 11.556279 2.392384 -11.282260
v 11.556279 2.392384 -11.800923
v 11.030774 3.187995 -11.594860
v 11.030774 3.187995 -11.657833
v 11.281219 3.187995 -11.657833
v 11.281219 3.187995 -11.594860
v 11.030774 3.338593 -11.594860
v 11.281219 3.338593 -11.594860
v 12.159185 2.701421 -11.408871
v 12.166922 2.703513 -11.417964
v 12.172450 2.704161 -11.408689
v 10.152807 2.701421 -11.408871
v 10.139543 2.704161 -11.408689
v 10.145071 2.703513 -11.417964
v 12.159185 3.827026 -11.540154
v 12.172450 3.824401 -11.539347
v 12.166890 3.823053 -11.548434
v 10.152807 3.827026 -11.540154
v 10.145103 3.823053 -11.548434
v 10.139543 3.824401 -11.539347
v 12.159185 2.704568 -11.381888
v 12.172450 2.707193 -11.382696
v 12.159185 2.708026 -11.374195
v 10.152807 2.704568 -11.381888
v 10.152807 2.708026 -11.374195
v 10.139543 2.707193 -11.382696
v 12.159185 3.830173 -11.513172
v 12.159185 3.828578 -11.504889
v 12.172450 3.827433 -11.513354
v 10.152807 3.830173 -11.513172
v 10.139543 3.827433 -11.513354
v 10.152807 3.828578 -11.504889
v 11.030774 3.338593 -11.631497
v 11.030774 3.310622 -11.657833
v 11.281219 3.310622 -11.657833
v 11.281219 3.338593 -11.631497
v 10.755713 2.457106 -11.282260
v 10.779464 2.478113 -11.309845
v 10.780051 2.478113 -11.787558
v 10.755713 2.457106 -11.800923
v 11.532529 2.478113 -11.309845
v 11.556279 2.457106 -11.282260
v 11.531941 2.478113 -11.787558
v 11.556279 2.457106 -11.800923
v 12.141443 2.723452 -11.375350
v 10.170549 2.723452 -11.375350
v 10.170549 3.813153 -11.503734
v 12.141443 3.813153 -11.503734
v 12.141443 2.721097 -11.395340
v 10.170549 2.721097 -11.395340
v 10.170549 3.810798 -11.523723
v 12.141443 3.810798 -11.523723
v 10.587922 2.945754 -11.538627
v 11.724071 2.945754 -11.538627
v 11.724054 3.580823 -11.603862
v 10.587938 3.580823 -11.603862
v 11.000196 2.478113 -11.566221
v 11.024376 2.484033 -11.594249
v 11.024376 2.484033 -11.653445
v 10.999599 2.478113 -11.666986
v 11.287617 2.484033 -11.653445
v 11.312393 2.478113 -11.666986
v 11.287617 2.484033 -11.594249
v 11.311797 2.478113 -11.566221
vt 0.998151 0.000059
vt 0.000059 0.999942
vt 0.000059 0.000059
vt 0.998151 0.999941
vt 0.625000 0.250000
vt 0.625000 0.000000
vt 0.625000 0.250000
vt 0.625000 0.500000
vt 0.625000 0.750000
vt 0.625000 0.750000
vt 0.608004 0.000000
vt 0.375000 0.250000
vt 0.375000 0.000000
vt 0.375000 0.500000
vt 0.125000 0.750000
vt 0.125000 0.500000
vt 0.608004 0.500000
vt 0.375000 0.750000
vt 0.625000 0.250000
vt 0.625000 0.500000
vt 0.608004 0.250000
vt 0.625000 1.000000
vt 0.625000 1.000000
vt 0.625000 0.500000
vt 0.625000 0.500000
vt 0.625000 0.750000
vt 0.625000 0.750000
vt 0.625000 1.000000
vt 0.625000 1.000000
vt 0.625000 0.250000
vt 0.625000 0.500000
vt 0.875000 0.567132
vt 0.625000 0.750000
vt 0.625000 0.567132
vt 0.625000 0.000000
vt 0.625000 0.000000
vt 0.625000 0.000000
vt 0.873369 0.750000
vt 0.626631 0.750000
vt 0.626631 0.750000
vt 0.625000 0.998369
vt 0.625000 0.998369
vt 0.625000 0.998369
vt 0.625000 0.750000
vt 0.625000 0.750000
vt 0.625000 0.750000
vt 0.625000 0.000000
vt 0.625000 0.000000
vt 0.625000 0.000000
vt 0.875000 0.750000
vt 0.625000 0.750000
vt 0.625000 0.750000
vt 0.625000 0.750000
vt 0.625000 0.750000
vt 0.625000 1.000000
vt 0.625000 1.000000
vt 0.625000 0.751631
vt 0.625000 0.998369
vt 0.625000 1.000000
vt 0.625000 0.999320
vt 0.874316 0.750000
vt 0.875000 0.750000
vt 0.625000 0.751631
vt 0.625000 0.751631
vt 0.625000 0.998369
vt 0.625000 1.000000
vt 0.626631 0.750000
vt 0.625000 0.750000
vt 0.873369 0.750000
vt 0.875000 0.750000
vt 0.873369 0.750000
vt 0.875000 0.750000
vt 0.625000 0.000000
vt 0.625000 0.751631
vt 0.625000 1.000000
vt 0.875000 0.500000
vt 0.625000 0.000000
vt 0.625000 0.182868
vt 0.625000 0.250000
vt 0.625000 0.000000
vt 0.608004 0.750000
vt 0.375000 1.000000
vt 0.625000 0.751631
vt 0.625000 0.751631
vt 0.625000 0.751631
vt 0.625000 0.998369
vt 0.626631 0.750000
vt 0.625000 0.998369
vt 0.625000 0.998369
vt 0.873369 0.750000
vt 0.626631 0.750000
vt 0.875000 0.750000
vt 0.625000 0.000000
vt 0.625000 0.000000
vt 0.608004 1.000000
vt 0.625000 0.751631
vt 0.873369 0.750000
vt 0.625000 0.000000
vn 0.0000 0.1170 0.9931
vn 0.0000 1.0000 0.0000
vn 1.0000 0.0091 0.0000
vn -1.0000 0.0000 0.0000
vn 0.0000 -1.0000 0.0000
vn 1.0000 0.0000 0.0000
vn 0.0000 -0.0062 -1.0000
vn 0.0000 0.0000 -1.0000
vn 0.0000 0.0009 1.0000
vn -0.1844 -0.1138 -0.9762
vn 1.0000 0.0001 0.0000
vn 0.0000 0.9933 -0.1158
vn 0.0360 0.1158 0.9926
vn 0.0000 0.2231 -0.9748
vn 0.2103 -0.0999 -0.9725
vn 0.0000 -0.4459 -0.8951
vn 0.2028 -0.9778 -0.0525
vn -0.2028 -0.9778 -0.0525
vn 0.2027 0.9430 -0.2638
vn -0.2027 0.9430 -0.2639
vn 0.2013 -0.8934 0.4016
vn -0.2013 -0.8934 0.4016
vn 0.2013 0.9619 0.1852
vn -0.2013 0.9619 0.1852
vn 0.0000 -0.9745 -0.2242
vn 0.0000 0.9016 -0.4326
vn 0.8554 -0.0600 -0.5145
vn -0.8593 -0.0592 -0.5081
vn 0.0000 -0.9121 0.4101
vn 0.0000 0.9820 0.1890
vn 0.5414 0.0974 0.8351
vn -0.5413 0.0974 0.8352
vn -0.1995 -0.9733 0.1135
vn -0.1995 0.9733 -0.1135
vn 0.1996 0.9733 -0.1136
vn 0.1996 -0.9733 0.1135
vn 0.0000 -0.9933 0.1159
vn 0.0000 0.6855 -0.7281
vn -0.6625 0.7490 0.0000
vn 0.0000 0.5368 -0.8437
vn 0.6531 0.7572 -0.0008
vn 0.0000 0.7956 0.6058
vn 0.0000 0.0000 1.0000
vn 0.0361 0.1158 0.9926
vn 0.0000 0.0747 0.9972
vn 0.0000 0.9931 -0.1170
vn 0.0000 -0.9931 0.1170
vn 0.0000 -0.2261 -0.9741
vn 0.1260 0.0000 -0.9920
vn 0.0000 -0.0371 -0.9993
vn -0.0357 -0.1021 -0.9941
vn -1.0000 0.0091 0.0000
vn -0.2103 -0.0999 -0.9725
vn 0.0000 0.9933 -0.1159
vn -0.0371 0.1169 0.9924
vn 0.1844 -0.1138 -0.9762
vn 0.8593 -0.0592 -0.5081
vn -0.8554 -0.0600 -0.5145
vn 0.0000 -0.9121 0.4100
vn 0.5413 0.0974 0.8352
vn -0.5414 0.0974 0.8351
vn -0.1996 -0.9733 0.1135
vn -0.1996 0.9733 -0.1135
vn 0.1995 0.9733 -0.1135
vn 0.1995 -0.9733 0.1135
vn -0.6531 0.7572 -0.0008
vn 0.6625 0.7491 0.0000
vn -0.0370 0.1169 0.9925
vn 0.0357 -0.1021 -0.9941
vn -0.1260 0.0000 -0.9920
vn -0.2363 0.9717 0.0014
vn 0.0000 0.9162 -0.4006
vn 0.2324 0.9726 0.0000
vn 0.0000 0.9784 0.2067
vn -0.2324 0.9726 0.0000
vn 0.2363 0.9717 0.0014
usemtl 7355608
s off
f 51/1/1 53/2/1 52/3/1
f 51/1/1 54/4/1 53/2/1
usemtl black
f 41/5/2 59/6/2 62/7/2
f 63/8/3 8/9/3 65/10/3
f 39/11/4 2/12/4 1/13/4
f 4/14/5 1/15/5 2/16/5
f 46/17/6 3/18/6 4/14/6
f 61/19/7 7/20/7 63/8/7
f 42/21/8 4/14/8 2/12/8
f 65/10/9 5/22/9 60/23/9
f 41/5/2 64/24/2 45/25/2
f 45/25/2 66/26/2 43/27/2
f 43/27/2 59/28/2 40/29/2
f 6/30/8 37/31/8 7/20/8
f 35/32/2 10/33/2 38/34/2
f 58/35/10 16/36/10 21/37/10
f 37/31/11 38/34/11 10/33/11
f 20/38/12 29/39/12 17/40/12
f 27/41/13 49/42/13 34/43/13
f 18/44/6 24/45/6 13/46/6
f 22/47/4 28/48/4 33/49/4
f 58/50/14 19/51/14 57/52/14
f 57/52/15 12/53/15 56/54/15
f 56/54/16 16/55/16 55/56/16
f 11/57/17 12/53/17 13/46/17
f 14/58/18 15/59/18 16/60/18
f 17/40/19 18/44/19 19/51/19
f 20/38/20 21/61/20 22/62/20
f 23/63/21 24/45/21 25/64/21
f 26/65/22 27/41/22 28/66/22
f 29/39/23 30/67/23 31/68/23
f 32/69/24 33/70/24 34/71/24
f 14/58/25 12/53/25 11/57/25
f 21/72/26 17/40/26 19/51/26
f 13/46/27 19/51/27 18/44/27
f 15/73/28 21/37/28 16/36/28
f 27/41/29 23/63/29 25/64/29
f 32/69/30 30/67/30 29/39/30
f 25/64/31 31/68/31 30/74/31
f 27/41/32 33/75/32 28/66/32
f 26/65/33 15/59/33 14/58/33
f 20/38/34 33/70/34 32/69/34
f 31/68/35 17/40/35 29/39/35
f 23/63/36 13/46/36 24/45/36
f 11/57/37 26/65/37 14/58/37
f 38/34/38 36/76/38 35/32/38
f 9/77/4 35/78/4 36/79/4
f 40/80/39 42/21/39 39/11/39
f 45/25/40 42/21/40 41/5/40
f 43/27/41 46/17/41 45/25/41
f 40/29/42 44/81/42 43/27/42
f 44/81/43 1/82/43 3/18/43
f 47/83/4 54/84/4 51/85/4
f 30/74/44 47/83/44 25/64/44
f 25/64/45 48/86/45 27/41/45
f 34/71/45 50/87/45 30/67/45
f 47/83/46 52/88/46 48/86/46
f 48/86/6 53/89/6 49/42/6
f 49/90/47 54/91/47 50/87/47
f 8/9/48 55/56/48 5/22/48
f 10/33/49 56/54/49 8/9/49
f 9/92/50 57/52/50 10/33/50
f 9/77/51 55/93/51 58/35/51
f 61/19/52 5/94/52 6/30/52
f 41/5/2 40/80/2 59/6/2
f 63/8/3 7/20/3 8/9/3
f 39/11/4 42/21/4 2/12/4
f 4/14/5 3/18/5 1/15/5
f 46/17/6 44/81/6 3/18/6
f 61/19/7 6/30/7 7/20/7
f 42/21/8 46/17/8 4/14/8
f 65/10/9 8/9/9 5/22/9
f 41/5/2 62/7/2 64/24/2
f 45/25/2 64/24/2 66/26/2
f 43/27/2 66/26/2 59/28/2
f 6/30/8 36/79/8 37/31/8
f 35/32/2 9/92/2 10/33/2
f 58/35/53 55/93/53 16/36/53
f 10/33/6 8/9/6 37/31/6
f 8/9/6 7/20/6 37/31/6
f 20/38/54 32/69/54 29/39/54
f 27/41/55 48/86/55 49/42/55
f 18/44/6 31/68/6 24/45/6
f 22/47/4 15/73/4 28/48/4
f 58/50/14 21/72/14 19/51/14
f 57/52/56 19/51/56 12/53/56
f 56/54/16 12/53/16 16/55/16
f 14/58/25 16/55/25 12/53/25
f 21/72/26 20/38/26 17/40/26
f 13/46/57 12/53/57 19/51/57
f 15/73/58 22/47/58 21/37/58
f 27/41/59 26/65/59 23/63/59
f 32/69/30 34/71/30 30/67/30
f 25/64/60 24/45/60 31/68/60
f 27/41/61 34/43/61 33/75/61
f 26/65/62 28/66/62 15/59/62
f 20/38/63 22/62/63 33/70/63
f 31/68/64 18/44/64 17/40/64
f 23/63/65 11/57/65 13/46/65
f 11/57/37 23/63/37 26/65/37
f 38/34/38 37/31/38 36/76/38
f 36/79/4 6/30/4 5/94/4
f 5/94/4 9/77/4 36/79/4
f 40/80/66 41/5/66 42/21/66
f 45/25/40 46/17/40 42/21/40
f 43/27/67 44/81/67 46/17/67
f 40/29/42 39/95/42 44/81/42
f 44/81/43 39/95/43 1/82/43
f 47/83/4 50/96/4 54/84/4
f 30/74/68 50/96/68 47/83/68
f 25/64/45 47/83/45 48/86/45
f 34/71/45 49/90/45 50/87/45
f 47/83/46 51/85/46 52/88/46
f 48/86/6 52/88/6 53/89/6
f 49/90/47 53/97/47 54/91/47
f 8/9/48 56/54/48 55/56/48
f 10/33/69 57/52/69 56/54/69
f 9/92/50 58/50/50 57/52/50
f 9/77/70 5/94/70 55/93/70
f 61/19/52 60/98/52 5/94/52
usemtl blue_light
f 60/98/71 62/7/71 59/6/71
f 63/8/72 62/7/72 61/19/72
f 65/10/73 64/24/73 63/8/73
f 60/23/74 66/26/74 65/10/74
f 60/98/75 61/19/75 62/7/75
f 63/8/72 64/24/72 62/7/72
f 65/10/76 66/26/76 64/24/76
f 60/23/74 59/28/74 66/26/74
