# Blender v3.0.0 OBJ File: 'untitled.blend'
# www.blender.org
mtllib mouse.mtl
o mouse_Cube.022
v 12.374632 2.408579 -10.793899
v 12.374632 2.466289 -10.793899
v 12.374632 2.408579 -11.106700
v 12.374632 2.469447 -11.106700
v 12.549726 2.408579 -10.793899
v 12.549726 2.466289 -10.793899
v 12.549726 2.408579 -11.106700
v 12.549726 2.469447 -11.106700
v 12.456297 2.408579 -11.106700
v 12.468061 2.408579 -11.106700
v 12.468061 2.469447 -11.106700
v 12.456297 2.469447 -11.106700
v 12.468061 2.408579 -10.793899
v 12.456297 2.408579 -10.793899
v 12.456297 2.466289 -10.793899
v 12.468061 2.466289 -10.793899
v 12.374632 2.408579 -10.959894
v 12.374632 2.408579 -10.952115
v 12.374632 2.484081 -10.952115
v 12.374632 2.484081 -10.959894
v 12.549726 2.408579 -10.952115
v 12.549726 2.408579 -10.959894
v 12.549726 2.484081 -10.959894
v 12.549726 2.484081 -10.952115
v 12.456297 2.484081 -10.959894
v 12.456297 2.484081 -10.952115
v 12.468061 2.484081 -10.952115
v 12.468061 2.484081 -10.959894
v 12.468061 2.408579 -10.959894
v 12.468061 2.408579 -10.952115
v 12.456297 2.408579 -10.952115
v 12.456297 2.408579 -10.959894
v 12.456617 2.416781 -11.100555
v 12.467741 2.416781 -11.100555
v 12.467741 2.466104 -11.100555
v 12.456617 2.466104 -11.100555
v 12.544967 2.480737 -10.961731
v 12.544967 2.480737 -10.954374
v 12.544967 2.416781 -10.954374
v 12.544967 2.416781 -10.961731
v 12.379392 2.480737 -10.954374
v 12.379392 2.480737 -10.961731
v 12.379392 2.416781 -10.961731
v 12.379392 2.416781 -10.954374
v 12.456617 2.480737 -10.961731
v 12.456617 2.480737 -10.954374
v 12.467741 2.480737 -10.954374
v 12.467741 2.480737 -10.961731
v 12.547685 2.464587 -11.105558
v 12.547685 2.458398 -11.105558
v 12.456434 2.458388 -11.105558
v 12.456434 2.464597 -11.105558
v 12.376674 2.464587 -11.105558
v 12.376674 2.458398 -11.105558
v 12.376674 2.470802 -10.962176
v 12.376674 2.476985 -10.962176
v 12.467924 2.458388 -11.105558
v 12.467924 2.464597 -11.105558
v 12.547685 2.476985 -10.962176
v 12.547685 2.470802 -10.962176
v 12.374632 2.455517 -10.793899
v 12.374632 2.461790 -10.793899
v 12.374632 2.458225 -11.106700
v 12.374632 2.464562 -11.106700
v 12.549726 2.458225 -11.106700
v 12.549726 2.464562 -11.106700
v 12.549726 2.461790 -10.793899
v 12.549726 2.455517 -10.793899
v 12.456297 2.461784 -10.793899
v 12.456297 2.455523 -10.793899
v 12.468061 2.455523 -10.793899
v 12.468061 2.461784 -10.793899
v 12.468061 2.464572 -11.106700
v 12.468061 2.458215 -11.106700
v 12.456297 2.464572 -11.106700
v 12.456297 2.458215 -11.106700
v 12.549726 2.477238 -10.952115
v 12.549726 2.470944 -10.952115
v 12.549726 2.470926 -10.959894
v 12.549726 2.477256 -10.959894
v 12.374632 2.477256 -10.959894
v 12.374632 2.470926 -10.959894
v 12.374632 2.470944 -10.952115
v 12.374632 2.477238 -10.952115
v 12.467741 2.462763 -11.100555
v 12.467741 2.456394 -11.100555
v 12.456617 2.456394 -11.100555
v 12.456617 2.462763 -11.100555
v 12.544967 2.469121 -10.954374
v 12.544967 2.475430 -10.954374
v 12.544967 2.469116 -10.961731
v 12.544967 2.475435 -10.961731
v 12.379392 2.475435 -10.961731
v 12.379392 2.469116 -10.961731
v 12.379392 2.475430 -10.954374
v 12.379392 2.469121 -10.954374
vt 0.875000 0.500000
vt 0.758398 0.617331
vt 0.758398 0.500000
vt 0.125000 0.617331
vt 0.125000 0.623549
vt 0.125000 0.617331
vt 0.741602 0.623549
vt 0.625000 0.750000
vt 0.625000 0.623549
vt 0.375000 0.500000
vt 0.258398 0.617331
vt 0.258398 0.500000
vt 0.375000 0.132669
vt 0.578910 0.250000
vt 0.375000 0.250000
vt 0.741602 0.500000
vt 0.625000 0.617331
vt 0.625000 0.500000
vt 0.602342 0.623549
vt 0.605511 0.750000
vt 0.578869 0.383398
vt 0.375000 0.383398
vt 0.375000 0.623549
vt 0.258398 0.750000
vt 0.258398 0.623549
vt 0.241602 0.500000
vt 0.125000 0.500000
vt 0.578335 0.750000
vt 0.375000 0.866602
vt 0.375000 0.750000
vt 0.875000 0.623549
vt 0.758398 0.750000
vt 0.758398 0.623549
vt 0.375000 0.883398
vt 0.578360 0.866602
vt 0.578360 0.883398
vt 0.578336 1.000000
vt 0.375000 1.000000
vt 0.578910 0.500000
vt 0.375000 0.617331
vt 0.241602 0.623549
vt 0.605486 0.883398
vt 0.625000 0.866602
vt 0.625000 0.883398
vt 0.578869 0.366602
vt 0.375000 0.366602
vt 0.375000 0.366602
vt 0.758398 0.623549
vt 0.625000 0.623549
vt 0.741602 0.623549
vt 0.602404 0.132669
vt 0.625000 0.132669
vt 0.625000 0.132669
vt 0.125000 0.623549
vt 0.241602 0.617331
vt 0.604977 0.383398
vt 0.625000 0.383398
vt 0.625000 0.383398
vt 0.581443 0.617331
vt 0.375000 0.617331
vt 0.125000 0.750000
vt 0.608065 0.383398
vt 0.625000 0.366602
vt 0.258398 0.500000
vt 0.741602 0.617331
vt 0.625000 0.617331
vt 0.581504 0.126451
vt 0.375000 0.126451
vt 0.375000 0.126451
vt 0.875000 0.623549
vt 0.758398 0.500000
vt 0.875000 0.617331
vt 0.758398 0.617331
vt 0.741602 0.500000
vt 0.741602 0.617331
vt 0.375000 0.623549
vt 0.602404 0.617331
vt 0.604273 0.617331
vt 0.375000 0.383398
vt 0.575781 0.366602
vt 0.575781 0.383398
vt 0.579573 0.132669
vt 0.579594 0.126451
vt 0.579573 0.617331
vt 0.579594 0.623549
vt 0.581443 0.132669
vt 0.375000 0.132669
vt 0.604977 0.366602
vt 0.608065 0.366602
vt 0.602342 0.126451
vt 0.625000 0.126451
vt 0.604252 0.126451
vt 0.625000 0.250000
vt 0.604936 0.250000
vt 0.581504 0.623549
vt 0.604936 0.500000
vt 0.605511 1.000000
vt 0.605486 0.866602
vt 0.578335 0.000000
vt 0.375000 0.000000
vt 0.604252 0.623549
vt 0.604273 0.132669
vt 0.602404 0.132669
vt 0.605511 0.000000
vt 0.578910 0.250000
vt 0.578869 0.366602
vt 0.578910 0.500000
vt 0.625000 0.000000
vt 0.602404 0.617331
vt 0.604936 0.500000
vt 0.604936 0.250000
vt 0.581443 0.132669
vt 0.581443 0.617331
vt 0.604977 0.383398
vt 0.875000 0.617331
vt 0.741602 0.750000
vt 0.875000 0.750000
vt 0.241602 0.750000
vt 0.241602 0.500000
vt 0.625000 0.366602
vt 0.625000 0.126451
vt 0.625000 1.000000
vt 0.578869 0.383398
vt 0.604977 0.366602
vn 0.0000 0.9951 -0.0992
vn -0.8650 0.5018 0.0000
vn 0.0000 0.9937 0.1117
vn 0.0000 -1.0000 0.0000
vn -1.0000 0.0000 0.0000
vn 1.0000 0.0000 0.0000
vn 0.0000 0.0000 -1.0000
vn 0.0000 0.0000 1.0000
vn 0.9986 0.0000 -0.0521
vn 0.0000 0.5599 -0.8286
vn 0.3601 0.0000 0.9329
vn -0.9986 0.0000 -0.0521
vn -0.3600 0.0000 0.9330
vn 0.0000 0.5996 -0.8003
vn 0.0000 -0.4815 0.8764
vn -0.4289 0.0000 -0.9034
vn 0.0000 0.5599 -0.8285
vn 0.9967 0.0809 -0.0080
vn 0.4290 0.0000 -0.9033
vn -0.9948 0.1014 -0.0107
vn 0.8649 0.5020 0.0000
vn 0.3599 0.0000 0.9330
vn -0.4287 0.0000 -0.9035
vn 0.4288 0.0000 -0.9034
vn 0.4292 0.0000 -0.9032
vn -0.4291 0.0000 -0.9033
vn -0.3599 0.0000 0.9330
vn -0.0359 -0.9956 0.0861
vn 0.0001 0.9888 -0.1495
vn -0.0001 0.9888 -0.1494
vn 0.0359 -0.9956 0.0860
vn 0.0001 -0.9998 0.0217
vn -0.0360 0.9956 -0.0861
vn 0.0361 0.9956 -0.0862
vn -0.0001 -0.9998 0.0216
vn -0.8649 0.5020 0.0000
vn 0.0000 0.5600 -0.8285
vn 0.3600 0.0000 0.9330
vn -0.4288 0.0000 -0.9034
vn 0.9948 0.1009 -0.0107
vn 0.4287 0.0000 -0.9035
vn -0.9967 0.0808 -0.0080
vn 0.8650 0.5018 0.0000
vn -0.3601 0.0000 0.9329
vn -0.4290 0.0000 -0.9033
vn 0.4289 0.0000 -0.9034
vn 0.4286 0.0000 -0.9035
vn -0.4286 0.0000 -0.9035
vn -0.0360 -0.9956 0.0861
vn 0.0001 0.9888 -0.1494
vn -0.0001 0.9888 -0.1495
vn 0.0359 -0.9956 0.0861
vn 0.0001 -0.9998 0.0216
vn -0.0361 0.9956 -0.0862
vn 0.0359 0.9956 -0.0861
vn -0.0001 -0.9998 0.0217
vn 0.0000 0.9945 -0.1048
vn 0.0000 1.0000 0.0000
vn -0.7453 0.0000 -0.6667
vn 0.9929 0.0000 0.1192
vn 0.7452 0.0000 -0.6668
vn -0.9928 0.0000 0.1196
vn -0.7452 0.0000 -0.6668
vn 0.9928 0.0000 0.1196
vn 0.7453 0.0000 -0.6667
vn -0.9929 0.0000 0.1192
usemtl black
s off
f 4/1/1 25/2/1 12/3/1
f 17/4/2 44/5/2 43/6/2
f 27/7/3 6/8/3 24/9/3
f 7/10/4 29/11/4 10/12/4
f 17/13/5 63/14/5 3/15/5
f 11/16/1 23/17/1 8/18/1
f 77/19/6 6/8/6 67/20/6
f 74/21/7 7/10/7 10/22/7
f 21/23/4 13/24/4 30/25/4
f 9/26/4 17/4/4 3/27/4
f 68/28/8 13/29/8 5/30/8
f 19/31/3 15/32/3 26/33/3
f 14/34/8 71/35/8 70/36/8
f 14/34/8 61/37/8 1/38/8
f 65/39/6 22/40/6 7/10/6
f 13/24/4 31/41/4 30/25/4
f 15/32/3 27/7/3 26/33/3
f 29/11/4 9/26/4 10/12/4
f 69/42/8 16/43/8 15/44/8
f 76/45/9 33/46/9 9/47/9
f 3/15/7 76/45/7 9/47/7
f 27/7/10 46/48/10 26/33/10
f 27/7/10 38/49/10 47/50/10
f 31/41/4 29/11/4 30/25/4
f 81/51/11 42/52/11 20/53/11
f 30/25/4 22/40/4 21/23/4
f 18/54/4 32/55/4 31/41/4
f 73/56/12 35/57/12 11/58/12
f 79/59/13 40/60/13 22/40/13
f 31/41/4 1/61/4 18/54/4
f 85/62/7 36/63/7 35/57/7
f 9/26/14 34/64/14 10/12/14
f 28/65/15 37/66/15 23/17/15
f 83/67/16 44/68/16 18/69/16
f 26/33/17 41/70/17 19/31/17
f 25/2/18 36/71/18 12/3/18
f 25/2/15 42/72/15 45/73/15
f 77/19/19 38/49/19 24/9/19
f 28/65/20 35/74/20 48/75/20
f 22/40/21 39/76/21 21/23/21
f 80/77/13 37/66/13 92/78/13
f 34/79/7 87/80/7 86/81/7
f 94/82/5 44/68/5 96/83/5
f 39/76/6 91/84/6 89/85/6
f 82/86/22 43/87/22 94/82/22
f 75/88/9 36/63/9 88/89/9
f 84/90/23 41/91/23 95/92/23
f 81/51/5 4/93/5 64/94/5
f 78/95/24 39/76/24 89/85/24
f 74/21/12 34/79/12 86/81/12
f 73/56/7 8/18/7 66/96/7
f 15/44/8 62/97/8 69/42/8
f 67/20/8 16/43/8 72/98/8
f 8/18/6 80/77/6 66/96/6
f 4/93/7 75/88/7 64/94/7
f 21/23/6 68/28/6 5/30/6
f 61/99/5 18/69/5 1/100/5
f 78/95/25 90/101/25 77/19/25
f 95/92/26 83/67/26 84/90/26
f 92/78/27 79/59/27 80/77/27
f 82/86/22 93/102/22 81/51/22
f 64/94/28 56/103/28 81/51/28
f 71/35/8 69/42/8 70/36/8
f 62/104/5 83/67/5 61/99/5
f 67/20/6 78/95/6 77/19/6
f 76/45/29 54/105/29 51/106/29
f 74/21/30 50/107/30 65/39/30
f 72/98/8 68/28/8 67/20/8
f 62/97/8 70/36/8 69/42/8
f 2/108/5 84/90/5 62/104/5
f 66/96/31 59/109/31 49/110/31
f 75/88/32 53/111/32 64/94/32
f 63/14/33 55/112/33 54/105/33
f 65/39/34 60/113/34 79/59/34
f 73/56/35 49/110/35 58/114/35
f 4/1/1 20/115/1 25/2/1
f 17/4/36 18/54/36 44/5/36
f 27/7/3 16/116/3 6/8/3
f 7/10/4 22/40/4 29/11/4
f 17/13/5 82/86/5 63/14/5
f 11/16/1 28/65/1 23/17/1
f 77/19/6 24/9/6 6/8/6
f 74/21/7 65/39/7 7/10/7
f 21/23/4 5/30/4 13/24/4
f 9/26/4 32/55/4 17/4/4
f 68/28/8 71/35/8 13/29/8
f 19/31/3 2/117/3 15/32/3
f 14/34/8 13/29/8 71/35/8
f 14/34/8 70/36/8 61/37/8
f 65/39/6 79/59/6 22/40/6
f 13/24/4 14/118/4 31/41/4
f 15/32/3 16/116/3 27/7/3
f 29/11/4 32/55/4 9/26/4
f 69/42/8 72/98/8 16/43/8
f 76/45/9 87/80/9 33/46/9
f 3/15/7 63/14/7 76/45/7
f 27/7/37 47/50/37 46/48/37
f 27/7/10 24/9/10 38/49/10
f 31/41/4 32/55/4 29/11/4
f 81/51/38 93/102/38 42/52/38
f 30/25/4 29/11/4 22/40/4
f 18/54/4 17/4/4 32/55/4
f 73/56/12 85/62/12 35/57/12
f 79/59/27 91/84/27 40/60/27
f 31/41/4 14/118/4 1/61/4
f 85/62/7 88/89/7 36/63/7
f 9/26/14 33/119/14 34/64/14
f 28/65/15 48/75/15 37/66/15
f 83/67/39 96/83/39 44/68/39
f 26/33/10 46/48/10 41/70/10
f 25/2/40 45/73/40 36/71/40
f 25/2/15 20/115/15 42/72/15
f 77/19/41 90/101/41 38/49/41
f 28/65/42 11/16/42 35/74/42
f 22/40/43 40/60/43 39/76/43
f 80/77/44 23/17/44 37/66/44
f 34/79/7 33/46/7 87/80/7
f 94/82/5 43/87/5 44/68/5
f 39/76/6 40/60/6 91/84/6
f 82/86/38 17/13/38 43/87/38
f 75/88/9 12/120/9 36/63/9
f 84/90/45 19/121/45 41/91/45
f 81/51/5 20/53/5 4/93/5
f 78/95/46 21/23/46 39/76/46
f 74/21/12 10/22/12 34/79/12
f 73/56/7 11/58/7 8/18/7
f 15/44/8 2/122/8 62/97/8
f 67/20/8 6/8/8 16/43/8
f 8/18/6 23/17/6 80/77/6
f 4/93/7 12/120/7 75/88/7
f 21/23/6 78/95/6 68/28/6
f 61/99/5 83/67/5 18/69/5
f 78/95/47 89/85/47 90/101/47
f 95/92/48 96/83/48 83/67/48
f 92/78/44 91/84/44 79/59/44
f 82/86/11 94/82/11 93/102/11
f 64/94/49 53/111/49 56/103/49
f 71/35/8 72/98/8 69/42/8
f 62/104/5 84/90/5 83/67/5
f 67/20/6 68/28/6 78/95/6
f 76/45/50 63/14/50 54/105/50
f 74/21/51 57/123/51 50/107/51
f 72/98/8 71/35/8 68/28/8
f 62/97/8 61/37/8 70/36/8
f 2/108/5 19/121/5 84/90/5
f 66/96/52 80/77/52 59/109/52
f 75/88/53 52/124/53 53/111/53
f 63/14/54 82/86/54 55/112/54
f 65/39/55 50/107/55 60/113/55
f 73/56/56 66/96/56 49/110/56
usemtl blue_light
f 45/73/57 35/74/57 36/71/57
f 38/49/6 92/78/6 37/66/6
f 93/102/5 41/91/5 42/52/5
f 47/50/58 45/73/58 46/48/58
f 38/49/58 48/75/58 47/50/58
f 46/48/58 42/72/58 41/70/58
f 52/124/7 54/105/7 53/111/7
f 94/82/5 95/92/5 93/102/5
f 91/84/6 90/101/6 89/85/6
f 87/80/7 85/62/7 86/81/7
f 74/21/12 85/62/12 73/56/12
f 88/89/9 76/45/9 75/88/9
f 82/86/59 56/103/59 55/112/59
f 49/110/6 60/113/6 50/107/6
f 49/110/7 57/123/7 58/114/7
f 53/111/5 55/112/5 56/103/5
f 73/56/60 57/123/60 74/21/60
f 79/59/61 59/109/61 80/77/61
f 75/88/62 51/106/62 52/124/62
f 45/73/57 48/75/57 35/74/57
f 38/49/6 90/101/6 92/78/6
f 93/102/5 95/92/5 41/91/5
f 47/50/58 48/75/58 45/73/58
f 38/49/58 37/66/58 48/75/58
f 46/48/58 45/73/58 42/72/58
f 52/124/7 51/106/7 54/105/7
f 94/82/5 96/83/5 95/92/5
f 91/84/6 92/78/6 90/101/6
f 87/80/7 88/89/7 85/62/7
f 74/21/12 86/81/12 85/62/12
f 88/89/9 87/80/9 76/45/9
f 82/86/63 81/51/63 56/103/63
f 49/110/6 59/109/6 60/113/6
f 49/110/7 50/107/7 57/123/7
f 53/111/5 54/105/5 55/112/5
f 73/56/64 58/114/64 57/123/64
f 79/59/65 60/113/65 59/109/65
f 75/88/66 76/45/66 51/106/66
