# Blender v3.0.0 OBJ File: 'untitled.blend'
# www.blender.org
mtllib f.mtl
o f_Cube.006
v -3.774662 -0.084363 10.227711
v -3.774662 7.655015 10.227711
v -4.090168 -0.084363 10.223885
v -4.090168 7.655015 10.223885
v -3.752462 -0.084363 8.397078
v -3.752462 7.655015 8.397078
v -4.067968 -0.084363 8.393251
v -4.067968 7.655015 8.393251
vt 0.625000 0.000000
vt 0.375000 0.250000
vt 0.375000 0.000000
vt 0.625000 0.250000
vt 0.375000 0.500000
vt 0.625000 0.500000
vt 0.375000 0.750000
vt 0.625000 0.750000
vt 0.375000 1.000000
vt 0.125000 0.750000
vt 0.125000 0.500000
vt 0.875000 0.500000
vt 0.625000 1.000000
vt 0.875000 0.750000
vn -0.0121 0.0000 0.9999
vn -0.9999 0.0000 -0.0121
vn 0.0121 0.0000 -0.9999
vn 0.9999 0.0000 0.0121
vn 0.0000 -1.0000 0.0000
vn 0.0000 1.0000 0.0000
usemtl None
s off
f 2/1/1 3/2/1 1/3/1
f 4/4/2 7/5/2 3/2/2
f 8/6/3 5/7/3 7/5/3
f 6/8/4 1/9/4 5/7/4
f 7/5/5 1/10/5 3/11/5
f 4/12/6 6/8/6 8/6/6
f 2/1/1 4/4/1 3/2/1
f 4/4/2 8/6/2 7/5/2
f 8/6/3 6/8/3 5/7/3
f 6/8/4 2/13/4 1/9/4
f 7/5/5 5/7/5 1/10/5
f 4/12/6 2/14/6 6/8/6
